<svg width="120" height="80" viewBox="0 0 120 80" xmlns="http://www.w3.org/2000/svg">
  <!-- Left curly brace -->
  <path d="M15 15 C10 15, 5 20, 5 25 L5 30 C5 32, 3 34, 1 34 C3 34, 5 36, 5 38 L5 43 C5 48, 10 53, 15 53" stroke="url(#gradient1)" stroke-width="8" fill="none" stroke-linecap="round"/>
  
  <!-- Right curly brace -->
  <path d="M105 15 C110 15, 115 20, 115 25 L115 30 C115 32, 117 34, 119 34 C117 34, 115 36, 115 38 L115 43 C115 48, 110 53, 105 53" stroke="url(#gradient2)" stroke-width="8" fill="none" stroke-linecap="round"/>
  
  <!-- Smiley face eyes -->
  <circle cx="35" cy="28" r="6" fill="url(#gradient3)"/>
  <circle cx="55" cy="28" r="6" fill="url(#gradient3)"/>
  
  <!-- Smiley face mouth -->
  <path d="M30 40 Q45 50, 60 40" stroke="url(#gradient4)" stroke-width="6" fill="none" stroke-linecap="round"/>
  
  <!-- Text -->
  <text x="60" y="70" font-family="Arial, sans-serif" font-size="12" font-weight="bold" text-anchor="middle" fill="#4A5568">CCMPT DECODE</text>
  
  <defs>
    <linearGradient id="gradient1" x1="0%" y1="0%" x2="100%" y2="100%">
      <stop offset="0%" style="stop-color:#FFD700;stop-opacity:1" />
      <stop offset="50%" style="stop-color:#FF6B35;stop-opacity:1" />
      <stop offset="100%" style="stop-color:#FF3B30;stop-opacity:1" />
    </linearGradient>
    <linearGradient id="gradient2" x1="0%" y1="0%" x2="100%" y2="100%">
      <stop offset="0%" style="stop-color:#FF3B30;stop-opacity:1" />
      <stop offset="50%" style="stop-color:#FF6B35;stop-opacity:1" />
      <stop offset="100%" style="stop-color:#FFD700;stop-opacity:1" />
    </linearGradient>
    <linearGradient id="gradient3" x1="0%" y1="0%" x2="100%" y2="100%">
      <stop offset="0%" style="stop-color:#8B5CF6;stop-opacity:1" />
      <stop offset="100%" style="stop-color:#A855F7;stop-opacity:1" />
    </linearGradient>
    <linearGradient id="gradient4" x1="0%" y1="0%" x2="100%" y2="100%">
      <stop offset="0%" style="stop-color:#06D6A0;stop-opacity:1" />
      <stop offset="100%" style="stop-color:#4ECDC4;stop-opacity:1" />
    </linearGradient>
  </defs>
</svg>
